# xmcd CD database file
#
# Track frame offsets:
#	150
#	4287
#	18210
#	32534
#	63957
#	85431
#	119229
#	122553
#	140451
#	166250
#	178699
#	202872
#	217494
#	242595
#	256243
#	283092
#	294965
#	309263
#	332211
#	357409
#
# Disc length: 4797 seconds
#
# Revision: 0
# Processed by: cddbd v1.5.1PL0 Copyright (c) Steve Scherf et al.
# Submitted via: CDex 1.51
#
DISCID=2b12bb14
DTITLE=Los Lobos - Live 07-20-01 Sioux Falls, SD
DYEAR=2001
DGENRE=Blues
TTITLE0=Intro
TTITLE1=Papa Was a Rolling Stone
TTITLE2=I Can't Understand
TTITLE3=One Way Out
TTITLE4=Oh Yeah
TTITLE5=That Train Don't Stop Here
TTITLE6=Drums
TTITLE7=Maricela
TTITLE8=Run Away With You
TTITLE9=Pearly Queen
TTITLE10=This Time
TTITLE11=Waiting in Vain
TTITLE12=Sitting in the Park
TTITLE13=Come On, Let's Go
TTITLE14=Cumbia Raza
TTITLE15=Ay Te Dejo en San Antonio
TTITLE16=Soy Mexico Americano
TTITLE17=Don't Worry Baby
TTITLE18=La Bamba
TTITLE19=Applause
EXTD=YEAR: 2001
EXTT0=
EXTT1=
EXTT2=
EXTT3=
EXTT4=
EXTT5=
EXTT6=
EXTT7=
EXTT8=
EXTT9=
EXTT10=
EXTT11=
EXTT12=
EXTT13=
EXTT14=
EXTT15=
EXTT16=
EXTT17=
EXTT18=
EXTT19=
PLAYORDER=
